<?xml version="1.0" encoding="UTF-8" standalone="no"?>
<svg
   xmlns:dc="http://purl.org/dc/elements/1.1/"
   xmlns:cc="http://creativecommons.org/ns#"
   xmlns:rdf="http://www.w3.org/1999/02/22-rdf-syntax-ns#"
   xmlns:svg="http://www.w3.org/2000/svg"
   xmlns="http://www.w3.org/2000/svg"
   xmlns:xlink="http://www.w3.org/1999/xlink"
   xmlns:sodipodi="http://sodipodi.sourceforge.net/DTD/sodipodi-0.dtd"
   xmlns:inkscape="http://www.inkscape.org/namespaces/inkscape"
   width="571.15399mm"
   height="135.46667mm"
   viewBox="0 0 571.15399 135.46667"
   version="1.1"
   id="svg8"
   inkscape:version="1.0.1 (3bc2e813f5, 2020-09-07)"
   sodipodi:docname="foss-planet_logo_long.svg"
   inkscape:export-filename="/home/denys/github/fossplanet-2/static/images/logo.png"
   inkscape:export-xdpi="8.999999"
   inkscape:export-ydpi="8.999999">
  <defs
     id="defs2">
    <linearGradient
       inkscape:collect="always"
       id="linearGradient858">
      <stop
         style="stop-color:#a27029;stop-opacity:1"
         offset="0"
         id="stop854" />
      <stop
         style="stop-color:#f13d3c;stop-opacity:1"
         offset="1"
         id="stop856" />
    </linearGradient>
    <linearGradient
       inkscape:collect="always"
       xlink:href="#linearGradient858"
       id="linearGradient860"
       gradientUnits="userSpaceOnUse"
       x1="-9.2372103"
       y1="868.08234"
       x2="988.42651"
       y2="-46.287987" />
    <linearGradient
       inkscape:collect="always"
       xlink:href="#linearGradient858"
       id="linearGradient867"
       gradientUnits="userSpaceOnUse"
       x1="327.6008"
       y1="590.14008"
       x2="532.31946"
       y2="420.41299"
       gradientTransform="matrix(1.1344807,0,0,1.1344807,-58.487273,-55.268095)" />
    <linearGradient
       inkscape:collect="always"
       xlink:href="#linearGradient858"
       id="linearGradient967"
       gradientUnits="userSpaceOnUse"
       gradientTransform="matrix(1.1996807,0,0,1.1996807,-79.111938,-82.06364)"
       x1="327.6008"
       y1="590.14008"
       x2="532.31946"
       y2="420.41299" />
    <linearGradient
       inkscape:collect="always"
       xlink:href="#linearGradient858"
       id="linearGradient969"
       gradientUnits="userSpaceOnUse"
       gradientTransform="matrix(1.1344807,0,0,1.1344807,-58.487273,-55.268095)"
       x1="327.6008"
       y1="590.14008"
       x2="532.31946"
       y2="420.41299" />
    <linearGradient
       inkscape:collect="always"
       xlink:href="#linearGradient858"
       id="linearGradient971"
       gradientUnits="userSpaceOnUse"
       gradientTransform="matrix(1.1344807,0,0,1.1344807,-58.487273,-55.268095)"
       x1="327.6008"
       y1="590.14008"
       x2="532.31946"
       y2="420.41299" />
    <linearGradient
       inkscape:collect="always"
       xlink:href="#linearGradient858"
       id="linearGradient973"
       gradientUnits="userSpaceOnUse"
       gradientTransform="matrix(1.1344807,0,0,1.1344807,-58.487273,-55.268095)"
       x1="327.6008"
       y1="590.14008"
       x2="532.31946"
       y2="420.41299" />
    <linearGradient
       inkscape:collect="always"
       xlink:href="#linearGradient858"
       id="linearGradient867-5"
       gradientUnits="userSpaceOnUse"
       x1="327.6008"
       y1="590.14008"
       x2="532.31946"
       y2="420.41299"
       gradientTransform="matrix(1.1344807,0,0,1.1344807,-58.487273,-55.268095)" />
  </defs>
  <sodipodi:namedview
     id="base"
     pagecolor="#ffffff"
     bordercolor="#666666"
     borderopacity="1.0"
     inkscape:pageopacity="0.0"
     inkscape:pageshadow="2"
     inkscape:zoom="0.24748737"
     inkscape:cx="1102.5119"
     inkscape:cy="668.1249"
     inkscape:document-units="mm"
     inkscape:current-layer="text841"
     inkscape:document-rotation="0"
     showgrid="false"
     fit-margin-top="0"
     fit-margin-left="0"
     fit-margin-right="0"
     fit-margin-bottom="0"
     inkscape:window-width="1920"
     inkscape:window-height="1016"
     inkscape:window-x="0"
     inkscape:window-y="27"
     inkscape:window-maximized="1" />
  <metadata
     id="metadata5">
    <rdf:RDF>
      <cc:Work
         rdf:about="">
        <dc:format>image/svg+xml</dc:format>
        <dc:type
           rdf:resource="http://purl.org/dc/dcmitype/StillImage" />
        <dc:title />
      </cc:Work>
    </rdf:RDF>
  </metadata>
  <g
     inkscape:label="Ebene 1"
     inkscape:groupmode="layer"
     id="layer1">
    <g
       id="g965"
       transform="matrix(0.26458333,0,0,0.26458333,-29.633332,12.700002)">
      <g
         id="layer2"
         inkscape:label="Foreground"
         transform="translate(-11.021415,-82.335079)">
        <a
           id="a848"
           transform="matrix(3.1937019,0,0,3.1937019,-262.30927,-1022.1946)">
          <g
             aria-label="FOSS"
             id="text841"
             style="font-size:217.82px;line-height:1.25;font-family:'Fira Sans';-inkscape-font-specification:'Fira Sans';word-spacing:0px;fill:url(#linearGradient867);fill-opacity:1;stroke-width:1.13448">
            <path
               d="M 402.19161,330.81662 H 300.38204 v 160.31553 h 47.44971 v -59.42732 h 43.53395 v -32.93839 h -43.53395 v -35.01143 h 49.52275 z"
               style="font-style:normal;font-variant:normal;font-weight:900;font-stretch:normal;font-size:217.82px;font-family:'Fira Sans';-inkscape-font-specification:'Fira Sans Heavy';fill:url(#linearGradient967);fill-opacity:1;stroke-width:1.19968"
               id="path844" />
            <path
               d="m 471.8061,330.81663 c -45.52438,0 -70.7915,30.71262 -70.7915,79.93994 0,50.31643 25.26712,80.37559 70.7915,80.37559 45.52438,0 70.7915,-31.14826 70.7915,-80.37559 0,-50.31642 -25.26712,-79.93994 -70.7915,-79.93994 z m 0,31.80172 c 16.98996,0 24.17802,13.0692 24.17802,48.13822 0,35.06903 -6.75242,48.57387 -24.17802,48.57387 -16.98996,0 -24.17802,-13.50484 -24.17802,-48.57387 0,-35.06902 7.18806,-48.13822 24.17802,-48.13822 z"
               style="font-style:normal;font-variant:normal;font-weight:900;font-stretch:normal;font-size:217.82px;font-family:'Fira Sans';-inkscape-font-specification:'Fira Sans Heavy';fill:url(#linearGradient969);fill-opacity:1;stroke-width:1.13448"
               id="path846" />
            <path
               d="m 610.99256,330.81663 c -33.54428,0 -58.8114,17.64342 -58.8114,46.39566 0,21.99982 10.67318,37.46504 47.26694,49.0095 19.82162,6.09897 24.61366,10.01973 24.61366,18.95035 0,7.84152 -5.88114,13.72266 -18.95034,13.72266 -14.1583,0 -26.35622,-5.4455 -37.24722,-14.81176 l -21.99982,24.17802 c 12.41574,11.9801 32.01954,22.8711 60.9896,22.8711 39.86106,0 63.82126,-20.47508 63.82126,-49.66296 0,-27.22751 -13.94048,-40.73235 -45.08874,-50.75207 -21.56418,-6.97024 -27.2275,-9.36626 -27.2275,-17.20778 0,-6.75242 5.4455,-10.891 16.3365,-10.891 11.9801,0 22.43546,4.13858 32.45518,12.19792 l 19.82162,-23.30674 c -13.72266,-13.28702 -31.5839,-20.6929 -55.97974,-20.6929 z"
               style="font-style:normal;font-variant:normal;font-weight:900;font-stretch:normal;font-size:217.82px;font-family:'Fira Sans';-inkscape-font-specification:'Fira Sans Heavy';fill:url(#linearGradient971);fill-opacity:1;stroke-width:1.13448"
               id="path848" />
            <path
               d="m 736.89231,330.81663 c -33.54428,0 -58.8114,17.64342 -58.8114,46.39566 0,21.99982 10.67318,37.46504 47.26694,49.0095 19.82162,6.09897 24.61366,10.01973 24.61366,18.95035 0,7.84152 -5.88114,13.72266 -18.95034,13.72266 -14.1583,0 -26.35622,-5.4455 -37.24722,-14.81176 l -21.99982,24.17802 c 12.41574,11.9801 32.01954,22.8711 60.9896,22.8711 39.86106,0 63.82126,-20.47508 63.82126,-49.66296 0,-27.22751 -13.94048,-40.73235 -45.08874,-50.75207 -21.56418,-6.97024 -27.2275,-9.36626 -27.2275,-17.20778 0,-6.75242 5.4455,-10.891 16.3365,-10.891 11.9801,0 22.43546,4.13858 32.45518,12.19792 l 19.82162,-23.30674 c -13.72266,-13.28702 -31.5839,-20.6929 -55.97974,-20.6929 z"
               style="font-style:normal;font-variant:normal;font-weight:900;font-stretch:normal;font-size:217.82px;font-family:'Fira Sans';-inkscape-font-specification:'Fira Sans Heavy';fill:url(#linearGradient973);fill-opacity:1;stroke-width:1.13448"
               id="path850" />
          </g>
        </a>
        <g
           id="g1138"
           transform="matrix(0.50000001,0,0,0.50000001,123.02141,34.335071)">
          <g
             id="layer1-3"
             inkscape:label="Background">
            <circle
               style="fill:#031929;fill-opacity:1;stroke-width:0.185441;paint-order:fill markers stroke"
               id="path843"
               cx="512"
               cy="512"
               r="512" />
          </g>
          <g
             id="layer2-5"
             inkscape:label="Foreground">
            <g
               id="g8"
               style="fill:#b6dbf7;fill-opacity:1"
               transform="matrix(0.94814815,0,0,0.94814815,37.92536,37.925819)">
              <g
                 transform="matrix(0.1,0,0,-0.1,0,511)"
                 id="g6"
                 style="fill:#b6dbf7;fill-opacity:1">
                <path
                   d="M 4681.4,3294.8 C 3697.7,3172.8 2869.9,2675 2346,1889.2 c -62,-94 -114,-174 -114,-176 -2,-2 -110,-36 -239.9,-76 C 938.4,1317.3 298.5,881.5 142.6,373.6 -81.4,-350.2 584.5,-994.1 1992.1,-1422 c 130,-40 237.9,-74 239.9,-76 0,-2 52,-82 114,-175.9 479.9,-717.8 1231.7,-1207.7 2105.4,-1369.6 275.9,-52 821.8,-52 1099.7,0 871.8,160 1635.6,659.8 2105.4,1371.6 62,94 112,172 114,174 0,2 110,36 239.9,76 697.8,212 1189.7,459.9 1511.6,765.8 252,237.9 378,489.8 378,763.8 0,625.8 -653.8,1155.7 -1889.5,1529.6 -130,40 -239.9,74 -239.9,76 -2,2 -52,80 -114,174 -461.9,701.7 -1201.7,1193.6 -2047.5,1359.5 -211.9,42 -749.8,70 -927.7,48 z m 809.8,-459.9 C 6706.8,2629 7628.6,1619.3 7760.6,345.6 c 20,-200 10,-549.9 -20,-595.8 -6,-12 -106,-42 -221.9,-64 -1295.7,-251.9 -3141.2,-281.9 -4576.8,-76 -375.9,54 -663.8,114 -681.8,140 -28,46 -38,397.9 -18,595.8 92,879.8 541.9,1631.6 1249.7,2085.4 601.7,387.9 1281.6,523.9 1999.4,403.9 z M 1982.1,1181.4 c 0,-4 -14,-46 -30,-96 -14,-48 -38,-126 -50,-172 -20,-80 -26,-84 -156,-126 -361.9,-120 -655.8,-309.9 -747.8,-487.9 -58,-110 -58,-273.9 0,-383.9 176,-337.9 877.8,-601.9 2013.5,-755.8 1151.7,-156 2805.3,-156 3968.9,-2 1137.7,152 1849.5,419.9 2023.5,757.8 58,112 58,275.9 0,383.9 -92,177.9 -341.9,343.9 -697.8,467.9 -183.9,64 -185.9,66 -205.9,148 -12,44 -36,122 -50,170 -16,50 -26,92 -22,96 12,14 491.9,-174 661.8,-259.9 349.9,-174 615.8,-387.9 719.8,-577.9 84,-150 84,-321.9 0,-473.9 C 9220.2,-474.2 8540.3,-848.1 7718.6,-1060.1 6918.8,-1266 6225,-1352 5219.2,-1366 c -751.8,-12 -1137.7,6 -1701.5,76 -1475.6,182 -2641.3,643.8 -2925.2,1159.7 -78,142 -82,321.9 -12,457.9 106,202 405.9,437.9 771.8,611.9 247.9,117.9 629.8,263.9 629.8,241.9 z m -180,-1075.7 c 0,-239.9 0,-239.9 -44,-225.9 -90,28 -305.9,143.9 -343.9,185.9 -38,40 -38,44 -2,82 36,40 335.9,200 371.9,200 10,-0.1 18,-108.1 18,-242 z m 6618.3,151.9 c 72,-36 148,-84 167.9,-108 36,-40 36,-44 4,-80 -36,-40 -265.9,-166 -345.9,-192 -46,-12 -46,-12 -46,229.9 0,280.1 -18,268.1 220,150.1 z M 3231.8,-1691.9 c 609.8,-90 925.8,-108 1769.5,-108 629.8,0 887.8,8 1159.7,34 327.9,34 781.8,94 939.8,126 l 68,14 -98,-114 c -201.9,-233.9 -521.9,-475.9 -833.8,-631.8 -655.8,-327.9 -1459.6,-379.9 -2151.4,-137.9 -427.9,151.9 -877.8,449.9 -1153.7,769.8 l -98,114 68,-14 c 37.9,-8.1 187.9,-30.1 329.9,-52.1 z"
                   id="path4"
                   style="fill:#b6dbf7;fill-opacity:1" />
              </g>
            </g>
            <a
               id="a848-6"
               transform="matrix(0.80063246,0,0,0.80063246,74.17819,108.73592)" />
          </g>
        </g>
      </g>
    </g>
  </g>
</svg>
